<?xml version="1.0" encoding="UTF-8"?>
<svg xmlns="http://www.w3.org/2000/svg" width="1200" height="320" viewBox="0 0 1200 320" role="img" aria-label="Ollama Cloud Provider banner">
  <defs>
    <linearGradient id="bgBanner" x1="0" y1="0" x2="1" y2="1">
      <stop offset="0%" stop-color="#0D1117"/>
      <stop offset="100%" stop-color="#161B22"/>
    </linearGradient>
    <linearGradient id="cloudGradB" x1="0" y1="0" x2="0" y2="1">
      <stop offset="0%" stop-color="#F4F4F4"/>
      <stop offset="100%" stop-color="#D2D2D2"/>
    </linearGradient>
    <linearGradient id="shieldGradB" x1="0" y1="0" x2="0" y2="1">
      <stop offset="0%" stop-color="#3FB950"/>
      <stop offset="100%" stop-color="#1A7F37"/>
    </linearGradient>
    <linearGradient id="accentLine" x1="0" y1="0" x2="1" y2="0">
      <stop offset="0%" stop-color="#3FB950" stop-opacity="0"/>
      <stop offset="50%" stop-color="#3FB950" stop-opacity="0.8"/>
      <stop offset="100%" stop-color="#3FB950" stop-opacity="0"/>
    </linearGradient>
  </defs>

  <!-- Background -->
  <rect width="1200" height="320" fill="url(#bgBanner)"/>

  <!-- Subtle accent line under header -->
  <rect x="80" y="232" width="1040" height="2" fill="url(#accentLine)"/>

  <!-- Icon motif: llama head INSIDE cloud + shield (left side, vertically centered).
       Redesign (v2): llama inside the cloud (cloud is the frame), not peeking from behind.
       Original geometric interpretation — not the official Ollama logo. -->
  <g transform="translate(96, 96) scale(1.25)">
  <!-- Cloud shape: enlarged, frames the llama (drawn BEFORE llama). -->
  <path d="M 16 66 C 6 66 -2 58 -2 46 C -2 37 5 30 14 29 C 16 16 28 6 42 6 C 54 6 64 14 68 24 C 78 25 86 33 88 43 C 96 44 102 50 102 58 C 102 62 100 66 96 66 L 16 66 Z"
        fill="url(#cloudGradB)" stroke="#8B949E" stroke-width="2" stroke-linejoin="round"/>
  <!-- LLAMA HEAD — inside cloud. Scaled-down version of icon design. -->
  <g id="llama-head-banner">
    <!-- Left ear -->
    <path d="M 44 40 C 40 36 38 30 41 27 C 45 29 47 35 47 41 Z" fill="#E8D5B7" stroke="#8B7355" stroke-width="2" stroke-linejoin="round"/>
    <!-- Inner left ear -->
    <path d="M 43.5 38 C 41.5 35 40.5 31 42 29 C 44 30 45 34 45.5 39 Z" fill="#D4A896"/>
    <!-- Right ear -->
    <path d="M 52 40 C 56 36 58 30 55 27 C 51 29 49 35 49 41 Z" fill="#E8D5B7" stroke="#8B7355" stroke-width="2" stroke-linejoin="round"/>
    <!-- Inner right ear -->
    <path d="M 52.5 38 C 54.5 35 55.5 31 54 29 C 52 30 51 34 50.5 39 Z" fill="#D4A896"/>
    <!-- Head/skull -->
    <path d="M 48 35 C 41 35 38 39 37 45 C 36 51 38 57 41 62 C 43 65 45 67 48 67 C 51 67 53 65 55 62 C 58 57 60 51 59 45 C 58 39 55 35 48 35 Z"
          fill="#E8D5B7" stroke="#8B7355" stroke-width="2" stroke-linejoin="round"/>
    <!-- Forehead tuft -->
    <path d="M 45.5 35 C 46.5 32 47.5 31 48 31 C 48.5 31 49.5 32 50.5 35 C 49.5 34 48.5 33.5 48 33.5 C 47.5 33.5 46.5 34 45.5 35 Z" fill="#8B7355"/>
    <!-- Muzzle -->
    <path d="M 44 60 C 43 63 43 67 45 70 C 46 72 47 73 48 73 C 49 73 50 72 51 70 C 53 67 53 63 52 60 C 51 58 49.5 57 48 57 C 46.5 57 45 58 44 60 Z"
          fill="#F0E2C9" stroke="#8B7355" stroke-width="1.5" stroke-linejoin="round"/>
    <!-- Nostrils -->
    <ellipse cx="46.5" cy="71" rx="0.7" ry="1" fill="#3D2817"/>
    <ellipse cx="49.5" cy="71" rx="0.7" ry="1" fill="#3D2817"/>
    <!-- Mouth -->
    <path d="M 46.5 72 Q 48 73 49.5 72" stroke="#3D2817" stroke-width="0.8" fill="none" stroke-linecap="round"/>
    <!-- Eyes -->
    <ellipse cx="44" cy="48" rx="1.3" ry="1.8" fill="#3D2817"/>
    <ellipse cx="52" cy="48" rx="1.3" ry="1.8" fill="#3D2817"/>
    <circle cx="44.5" cy="47.3" r="0.5" fill="#F4F4F4"/>
    <circle cx="52.5" cy="47.3" r="0.5" fill="#F4F4F4"/>
    <!-- Eyebrow tufts -->
    <path d="M 42 45 Q 44 44 46 45" stroke="#8B7355" stroke-width="1" fill="none" stroke-linecap="round"/>
    <path d="M 50 45 Q 52 44 54 45" stroke="#8B7355" stroke-width="1" fill="none" stroke-linecap="round"/>
  </g>
  <!-- Shield overlay -->
  <path d="M 60 60 L 60 84 C 60 96 72 104 84 108 C 96 104 108 96 108 84 L 108 60 L 84 53 Z"
        fill="url(#shieldGradB)" stroke="#0D1117" stroke-width="2" stroke-linejoin="round"/>
  <rect x="74" y="77" width="20" height="16" rx="3" fill="#0D1117"/>
  <path d="M 78 77 L 78 71 C 78 67 82 64 84 64 C 86 64 90 67 90 71 L 90 77"
        fill="none" stroke="#0D1117" stroke-width="3" stroke-linecap="round"/>
  <circle cx="84" cy="85" r="2" fill="#3FB950"/>
</g>

  <!-- Title -->
  <text x="280" y="160" font-family="-apple-system, BlinkMacSystemFont, 'Segoe UI', Helvetica, Arial, sans-serif"
        font-size="64" font-weight="700" fill="#F0F6FC" text-rendering="geometricPrecision">
    Ollama Cloud Provider
  </text>

  <!-- Subtitle -->
  <text x="280" y="208" font-family="-apple-system, BlinkMacSystemFont, 'Segoe UI', Helvetica, Arial, sans-serif"
        font-size="28" font-weight="400" fill="#8B949E" text-rendering="geometricPrecision">
    Security-hardened fork · VS Code language model provider
  </text>

  <!-- Badge: Marketplace context -->
  <g transform="translate(280, 248)">
    <rect x="0" y="0" width="148" height="32" rx="16" fill="#21262D" stroke="#30363D" stroke-width="1"/>
    <circle cx="18" cy="16" r="5" fill="#3FB950"/>
    <text x="32" y="22" font-family="-apple-system, BlinkMacSystemFont, 'Segoe UI', Helvetica, Arial, sans-serif"
          font-size="16" font-weight="500" fill="#C9D1D9">
      VS Code Extension
    </text>
  </g>
  <g transform="translate(440, 248)">
    <rect x="0" y="0" width="196" height="32" rx="16" fill="#21262D" stroke="#30363D" stroke-width="1"/>
    <text x="16" y="22" font-family="-apple-system, BlinkMacSystemFont, 'Segoe UI', Helvetica, Arial, sans-serif"
          font-size="16" font-weight="500" fill="#C9D1D9">
      Copilot Chat · OpenAI-compatible
    </text>
  </g>
</svg>
